<svg width="80" height="80" viewBox="0 0 80 80" fill="none" xmlns="http://www.w3.org/2000/svg">
<path d="M47.8094 31.5684L51.4937 28L68.0728 44.0577C68.0728 44.0577 66.7812 47.0928 64.3885 49.4102C60.0064 53.6545 58.8622 52.9786 58.8622 52.9786C58.8622 52.9786 64.3885 58.3312 58.8622 61.8995C58.8622 61.8995 60.2973 63.6837 58.8622 65.4679C56.5413 68.3531 53.8619 65.9808 53.404 65.5363C53.825 65.9745 55.9564 68.4425 52.9605 70.7148C52.2729 71.2363 50.6973 71.8333 49.6516 70.8205C45.9673 77.9572 40.67 71.1355 40.67 71.1355L40.2652 70.6259C40.0511 70.8716 39.8081 71.1267 39.5342 71.392C36.6501 74.1854 35.0586 74.9789 32.9364 72.9232C30.8141 70.8675 32.9995 67.9204 34.2662 66.6935C31.9208 68.7953 29.2437 71.1131 26.7976 68.744C24.7029 66.7151 26.4566 64.6575 28.3166 62.8366C25.7852 65.2512 23.4012 67.1152 20.7957 64.5917C17.8746 61.7625 21.6267 58.614 23.7173 56.5891C20.8332 59.3826 18.8711 60.344 16.7489 58.2883C14.6266 56.2325 17.5597 53.7145 18.8265 52.4876C19.1976 52.1282 19.6638 51.6955 20.1781 51.3027C18.0856 47.9981 17.5917 46.0167 18.3359 42.2735L31.2308 29.7842C31.2308 29.7842 34.5295 29.2342 36.6116 29.7842C39.114 30.4452 42.2835 33.3526 42.2835 33.3526C45.0752 32.6766 47.8094 31.5684 47.8094 31.5684Z" fill="#F6F1E4"/>
<rect x="5" y="36.3698" width="28.8072" height="11" rx="2" transform="rotate(-45 5 36.3698)" fill="#AAB89A"/>
<rect width="28.8072" height="11" rx="2" transform="matrix(-0.707107 -0.707107 -0.707107 0.707107 75.1475 36.3698)" fill="#AAB89A"/>
<path d="M49.2105 28.9209L48.8516 28.5734C48.0402 27.7875 48.0402 26.486 48.8516 25.7001L53.3454 21.3477C54.1209 20.5965 55.3527 20.5965 56.1283 21.3477L73.5168 38.1894C74.3282 38.9753 74.3282 40.2768 73.5168 41.0627L69.0231 45.4151C68.2476 46.1663 67.0158 46.1663 66.2402 45.4151L65.7896 44.9786M49.2105 28.9209L45.5262 32.4893C45.5262 32.4893 42.7919 33.5975 40.0003 34.2735M49.2105 28.9209L65.7896 44.9786M40.0003 34.2735C35.1901 35.4382 29.6864 40.5964 27.7893 42.4923C27.4041 42.8773 27.4182 43.4977 27.8094 43.8767L30.3936 46.3796C30.6399 46.6181 30.9913 46.7139 31.3246 46.6332L45.5262 43.1944L56.579 53.8995M40.0003 34.2735C40.0003 34.2735 36.8308 31.3661 34.3284 30.7051C32.2462 30.1551 28.9476 30.7051 28.9476 30.7051M56.579 53.8995C56.579 53.8995 57.7232 54.5754 62.1053 50.3312C64.498 48.0137 65.7896 44.9786 65.7896 44.9786M56.579 53.8995C56.579 53.8995 62.1053 59.2521 56.579 62.8205M56.579 62.8205L51.0526 57.4679M56.579 62.8205C56.579 62.8205 58.0141 64.6047 56.579 66.3888C54.0318 69.5555 51.0526 66.3888 51.0526 66.3888M51.0526 66.3888L46.3149 61.6364M51.0526 66.3888C51.0526 66.3888 53.9794 69.1312 50.6772 71.6357C49.9896 72.1573 48.4141 72.7543 47.3683 71.7414M43.6841 68.173C43.6841 68.173 45.5262 69.9572 47.3683 71.7414M47.3683 71.7414C43.6841 78.8782 38.3868 72.0564 38.3868 72.0564L37.9819 71.5468M26.9605 62.8626C29.8447 60.0692 31.3239 58.1683 28.8021 55.7258C26.2803 53.2833 23.5247 55.4852 21.4341 57.5101M26.9605 62.8626C24.0763 65.6561 21.4336 68.3419 18.5125 65.5126C15.5914 62.6834 19.3435 59.5349 21.4341 57.5101M26.9605 62.8626C24.8699 64.8875 22.0684 67.2958 24.5144 69.6649C26.9605 72.0341 29.6376 69.7162 31.983 67.6144M26.9605 62.8626C29.0511 60.8378 31.983 58.3436 34.3284 61.0783C36.6738 63.813 34.3284 65.5126 31.983 67.6144M21.4341 57.5101C24.3183 54.7166 23.4043 53.2212 21.7945 51.6617C20.6563 50.5592 19.1358 51.2756 17.8948 52.2236M21.4341 57.5101C18.5499 60.3035 16.5879 61.2649 14.4657 59.2092C12.3434 57.1535 15.2765 54.6354 16.5432 53.4086C16.9144 53.0491 17.3806 52.6165 17.8948 52.2236M31.983 67.6144C30.7163 68.8413 28.5309 71.7884 30.6532 73.8441C32.7754 75.8998 34.3669 75.1064 37.251 72.3129C37.5249 72.0476 37.7679 71.7926 37.9819 71.5468M31.983 67.6144C33.2497 66.3876 36.3721 64.7372 37.9819 66.2967C39.439 67.708 40.0224 69.2045 37.9819 71.5468M16.0527 43.1944L13.7599 45.4151C12.9844 46.1663 11.7526 46.1663 10.977 45.4151L6.48327 41.0627C5.67186 40.2768 5.67186 38.9753 6.48327 38.1894L23.8719 21.3477C24.6474 20.5965 25.8792 20.5965 26.6548 21.3477L31.1485 25.7001C31.9599 26.486 31.9599 27.7875 31.1485 28.5734L28.9476 30.7051M16.0527 43.1944L28.9476 30.7051M16.0527 43.1944C15.3085 46.9376 15.8024 48.919 17.8948 52.2236" stroke="#547147" stroke-width="2" stroke-linecap="round" stroke-linejoin="round"/>
<path fill-rule="evenodd" clip-rule="evenodd" d="M34.8806 5.74549C34.3809 5.85461 34.036 6.31792 34.0911 6.82644C34.4355 10.004 34.9678 12.6365 36.1549 14.7241C37.3675 16.8567 39.3273 18.5328 41.5363 19.7525C41.8244 19.9116 42.1741 19.9086 42.4605 19.7467C44.7871 18.432 46.7802 16.7578 47.9366 14.7241C49.0598 12.7489 49.562 10.1382 49.9045 6.89228C49.9611 6.35656 49.5759 5.8791 49.0447 5.78925C47.9956 5.61178 47.0801 5.37982 46.2982 5.09337C45.3768 4.75577 44.1043 4.14585 42.4809 3.26364C42.1809 3.10058 41.8185 3.09931 41.5173 3.26015C40.0664 4.03477 38.9318 4.572 38.1134 4.87183C37.3579 5.14864 36.2803 5.43987 34.8806 5.74549Z" fill="#F6F1E4"/>
<path fill-rule="evenodd" clip-rule="evenodd" d="M32 7.93103C32.3427 11.5125 32.8581 14.4435 34.1549 16.7241C35.4517 19.0048 37.603 20.7634 40 22C42.5228 20.6494 44.7046 18.8908 45.9366 16.7241C47.1686 14.5575 47.6535 11.6265 48 7.93103C46.5427 7.74285 45.3088 7.46363 44.2982 7.09337C43.2876 6.72311 41.8549 6.02532 40 5C38.316 5.91557 37.0205 6.53951 36.1134 6.87183C35.2064 7.20414 33.8353 7.55721 32 7.93103Z" stroke="#547147" stroke-width="2" stroke-linecap="round" stroke-linejoin="round"/>
</svg>
