<svg width="80" height="80" viewBox="0 0 80 80" fill="none" xmlns="http://www.w3.org/2000/svg">
<rect width="80" height="80" fill="white"/>
<path d="M55 51C67.1503 51 77 41.1503 77 29C77 16.8497 67.1503 7 55 7C42.8497 7 33 16.8497 33 29C33 41.1503 42.8497 51 55 51Z" fill="#AAB89A"/>
<path d="M53 50C65.1503 50 75 40.1503 75 28C75 15.8497 65.1503 6 53 6C40.8497 6 31 15.8497 31 28" stroke="#547147" stroke-width="2" stroke-linecap="round" stroke-linejoin="round"/>
<path fill-rule="evenodd" clip-rule="evenodd" d="M51.4971 44V41.276C46.5108 40.4407 44.2475 36.6634 44 33.6852L48.8802 32.5593C49.057 34.6659 50.4715 36.5545 53.5128 36.5545C55.2809 36.5545 56.554 35.6828 56.554 34.2663C56.554 33.2131 55.776 32.523 54.3615 32.1961L51.2141 31.4334C47.2534 30.4528 44.8134 27.9831 44.8134 24.5327C44.8134 20.4649 47.7839 17.6683 51.4971 17.0145V14H55.5639V17.1235C59.4538 17.9952 61.222 20.8644 61.7171 23.3341L56.8016 24.678C56.5894 23.5521 55.9882 21.6634 53.1945 21.6634C51.2141 21.6634 50.224 22.862 50.224 24.0242C50.224 25.0048 50.9312 25.7676 52.3104 26.0944L55.387 26.7845C60.1257 27.8741 62 30.707 62 33.9758C62 37.3172 59.666 40.4407 55.5639 41.2034V43.9274L51.4971 44Z" stroke="#F6F1E4" stroke-width="2" stroke-linecap="round" stroke-linejoin="round"/>
<path fill-rule="evenodd" clip-rule="evenodd" d="M21.2642 50.2579H21.8752C23.325 50.2579 24.6631 49.4748 25.3117 48.1782C26.522 45.759 28.3501 41.7488 28.6726 39.0175C28.8117 37.8389 28.9113 36.4446 28.9826 35.0525C29.1409 31.9615 32.5138 30.1702 34.4862 32.5552C35.6663 33.9822 36.5784 35.6442 36.5943 37.3821C36.6399 42.3559 35.0923 45.3193 35.0923 45.3193C35.0923 45.3193 44.6159 45.3193 46.9644 45.3193C49.3129 45.3193 51.9358 46.51 51.9245 48.8684C51.9132 51.2268 48.9203 52.2333 48.9203 52.2333C48.9203 52.2333 51.0079 52.8598 50.8958 55.1965C50.7837 57.5332 47.9326 58.1298 47.9326 58.1298C47.9326 58.1298 49.5702 59.8351 48.9203 61.621C48.2705 63.4069 45.9893 63.662 45.9893 63.662C45.9893 63.662 47.3797 65.2153 47.127 66.6879C46.8742 68.1606 45.0461 69.0246 42.994 69.0246C41.6506 69.0246 34.4471 69.0246 29.6315 69.0246C26.7266 69.0246 23.8624 68.3482 21.2642 67.0491V67.0491" fill="#F6F1E4"/>
<path d="M19.2642 52.2579H19.8752C21.325 52.2579 22.6631 51.4748 23.3117 50.1782C24.522 47.759 26.3501 43.7488 26.6726 41.0175C26.8117 39.8389 26.9113 38.4446 26.9826 37.0525C27.1409 33.9615 30.5138 32.1702 32.4862 34.5552C33.6663 35.9822 34.5784 37.6442 34.5943 39.3821C34.6399 44.3559 33.0923 47.3193 33.0923 47.3193C33.0923 47.3193 42.6159 47.3193 44.9644 47.3193C47.3129 47.3193 49.9358 48.51 49.9245 50.8684C49.9132 53.2268 46.9203 54.2333 46.9203 54.2333C46.9203 54.2333 49.0079 54.8598 48.8958 57.1965C48.7837 59.5332 45.9326 60.1298 45.9326 60.1298C45.9326 60.1298 47.5702 61.8351 46.9203 63.621C46.2705 65.4069 43.9893 65.662 43.9893 65.662C43.9893 65.662 45.3797 67.2153 45.127 68.6879C44.8742 70.1606 43.0461 71.0246 40.994 71.0246C39.6506 71.0246 32.4471 71.0246 27.6315 71.0246C24.7266 71.0246 21.8624 70.3482 19.2642 69.0491V69.0491" stroke="#547147" stroke-width="2" stroke-linecap="round" stroke-linejoin="round"/>
<path fill-rule="evenodd" clip-rule="evenodd" d="M12.0783 71C10.6055 71 9.41162 69.8061 9.41162 68.3333V49.9613C9.41162 48.4886 10.6055 47.2947 12.0783 47.2947H18.5976C20.0704 47.2947 21.2643 48.4886 21.2643 49.9613V68.3333C21.2643 69.8061 20.0704 71 18.5976 71H12.0783Z" fill="#AAB89A"/>
<path fill-rule="evenodd" clip-rule="evenodd" d="M10.0783 73C8.60553 73 7.41162 71.8061 7.41162 70.3333V51.9613C7.41162 50.4886 8.60553 49.2947 10.0783 49.2947H16.5976C18.0704 49.2947 19.2643 50.4886 19.2643 51.9613V70.3333C19.2643 71.8061 18.0704 73 16.5976 73H10.0783Z" stroke="#547147" stroke-width="2" stroke-linecap="square"/>
</svg>
