<svg width="80" height="80" viewBox="0 0 80 80" fill="none" xmlns="http://www.w3.org/2000/svg">
<rect x="10" y="14" width="66" height="45" rx="8" fill="#AAB89A"/>
<path d="M26.1429 5C26.7156 3.99627 27 3 27 3C27 3 27.2844 3.99627 27.8571 5C28.3609 5.88282 30 7 30 7C30 7 28.3609 8.11718 27.8571 9C27.2844 10.0037 27 11 27 11C27 11 26.7156 10.0037 26.1429 9C25.6391 8.11718 24 7 24 7C24 7 25.6391 5.88282 26.1429 5Z" fill="#F6F1E4"/>
<path d="M30 17H65C69.4183 17 73 20.5817 73 25V41M30 17V28M30 17H26M7 41V54C7 58.4183 10.5817 62 15 62H30M7 41V25C7 20.5817 10.5817 17 15 17H16M7 41H17M43 41H73M73 41V54C73 58.4183 69.4183 62 65 62H64M30 62V51M30 62H48" stroke="#547147" stroke-width="2" stroke-linecap="round"/>
<path d="M30 36C30 33.2386 32.2386 31 35 31C37.7614 31 40 33.2386 40 36C40 38.7614 37.7614 41 35 41H30M30 36C30 33.2386 27.7614 31 25 31C22.2386 31 20 33.2386 20 36C20 38.7614 22.2386 41 25 41H30M30 36V41M30 41L23 48M30 41L37 48" stroke="#F6F1E4" stroke-width="2" stroke-linecap="round"/>
<path d="M47 26H65" stroke="#547147" stroke-width="2" stroke-linecap="round"/>
<path d="M50 30H62" stroke="#547147" stroke-width="2" stroke-linecap="round"/>
<path d="M20.1429 13C20.7156 11.9963 21 11 21 11C21 11 21.2844 11.9963 21.8571 13C22.3609 13.8828 24 15 24 15C24 15 22.3609 16.1172 21.8571 17C21.2844 18.0037 21 19 21 19C21 19 20.7156 18.0037 20.1429 17C19.6391 16.1172 18 15 18 15C18 15 19.6391 13.8828 20.1429 13Z" stroke="#547147" stroke-width="2" stroke-linecap="round"/>
<path d="M59.8571 51.5C60.6209 50.2453 61 49 61 49C61 49 61.3791 50.2453 62.1429 51.5C62.8146 52.6035 65 54 65 54C65 54 62.8146 55.3965 62.1429 56.5C61.3791 57.7547 61 59 61 59C61 59 60.6209 57.7547 59.8571 56.5C59.1854 55.3965 57 54 57 54C57 54 59.1854 52.6035 59.8571 51.5Z" fill="#F6F1E4"/>
<path d="M54.8571 59.5C55.6209 58.2453 56 57 56 57C56 57 56.3791 58.2453 57.1429 59.5C57.8146 60.6035 60 62 60 62C60 62 57.8146 63.3965 57.1429 64.5C56.3791 65.7547 56 67 56 67C56 67 55.6209 65.7547 54.8571 64.5C54.1854 63.3965 52 62 52 62C52 62 54.1854 60.6035 54.8571 59.5Z" stroke="#547147" stroke-width="2" stroke-linecap="round"/>
</svg>
