<svg width="80" height="80" viewBox="0 0 80 80" fill="none" xmlns="http://www.w3.org/2000/svg">
<path d="M49 24V55H74C76.2091 55 78 53.2091 78 51V35.0213C78 34.5601 77.8406 34.1131 77.5488 33.7559L67.5104 21.4692C66.7508 20.5394 65.6136 20 64.4128 20H53C50.7909 20 49 21.7909 49 24Z" fill="#AAB89A"/>
<path d="M64.0029 25H56C54.8954 25 54 25.8954 54 27V35.9362C54 37.0407 54.8954 37.9362 56 37.9362H60.9161C61.4271 37.9362 61.9187 38.1317 62.29 38.4828L64.3747 40.4534C64.7461 40.8044 65.2376 41 65.7486 41H71C72.1046 41 73 40.1046 73 39V35.5842C73 35.1238 72.8411 34.6774 72.5502 34.3206L65.5532 25.7364C65.1734 25.2704 64.6041 25 64.0029 25Z" fill="#F6F1E4"/>
<path d="M61.0029 27H53C51.8954 27 51 27.8954 51 29V37.9362C51 39.0407 51.8954 39.9362 53 39.9362H57.9161C58.4271 39.9362 58.9187 40.1317 59.29 40.4828L61.3747 42.4534C61.7461 42.8044 62.2376 43 62.7486 43H68C69.1046 43 70 42.1046 70 41V37.5842C70 37.1238 69.8411 36.6774 69.5502 36.3206L62.5532 27.7364C62.1734 27.2704 61.6041 27 61.0029 27Z" stroke="#547147" stroke-width="2" stroke-linecap="round"/>
<path d="M46 27V58H71C73.2091 58 75 56.2091 75 54V38.0213C75 37.5601 74.8406 37.1131 74.5488 36.7559L64.5104 24.4692C63.7508 23.5394 62.6136 23 61.4128 23H50C47.7909 23 46 24.7909 46 27Z" stroke="#547147" stroke-width="2" stroke-linecap="round"/>
<path d="M45 11H12C9.79086 11 8 12.7909 8 15V51C8 53.2091 9.79086 55 12 55H35H49V24V15C49 12.7909 47.2091 11 45 11Z" fill="#F6F1E4"/>
<path d="M46 58V18C46 15.7909 44.2091 14 42 14H9C6.79086 14 5 15.7909 5 18V54C5 56.2091 6.79086 58 9 58H32H46ZM46 58V27" stroke="#547147" stroke-width="2" stroke-linecap="round"/>
<path d="M69 58C69 62.4183 65.4183 66 61 66C56.5817 66 53 62.4183 53 58C53 53.5817 56.5817 50 61 50C65.4183 50 69 53.5817 69 58Z" fill="#AAB89A" stroke="#547147" stroke-width="2" stroke-linecap="round"/>
<path d="M32 58C32 62.4183 28.4183 66 24 66C19.5817 66 16 62.4183 16 58C16 53.5817 19.5817 50 24 50C28.4183 50 32 53.5817 32 58Z" fill="#AAB89A" stroke="#547147" stroke-width="2" stroke-linecap="round"/>
<path d="M13 29H35M17.0741 35H35" stroke="#547147" stroke-width="2" stroke-linecap="round"/>
</svg>
