<svg width="40" height="40" viewBox="0 0 40 40" fill="none" xmlns="http://www.w3.org/2000/svg">
<path fill-rule="evenodd" clip-rule="evenodd" d="M0 20C0 8.95431 8.95431 0 20 0C31.0457 0 40 8.95431 40 20C40 31.0457 31.0457 40 20 40C8.95431 40 0 31.0457 0 20ZM20.0977 13.7346C16.686 13.7346 13.9326 16.4886 13.9326 19.901C13.9326 23.3134 16.686 26.0674 20.0977 26.0674C23.5094 26.0674 26.2628 23.3134 26.2628 19.901C26.2628 16.4886 23.5094 13.7346 20.0977 13.7346ZM20.0977 23.9087C17.8914 23.9087 16.0908 22.1078 16.0908 19.901C16.0908 17.6942 17.8914 15.8933 20.0977 15.8933C22.304 15.8933 24.1045 17.6942 24.1045 19.901C24.1045 22.1078 22.304 23.9087 20.0977 23.9087ZM26.5153 12.0449C25.7187 12.0449 25.0754 12.6883 25.0754 13.4851C25.0754 14.2818 25.7187 14.9252 26.5153 14.9252C27.3118 14.9252 27.9551 14.2848 27.9551 13.4851C27.9553 13.2959 27.9182 13.1085 27.846 12.9337C27.7737 12.7588 27.6677 12.6 27.5339 12.4662C27.4002 12.3324 27.2413 12.2264 27.0665 12.1541C26.8918 12.0818 26.7044 12.0447 26.5153 12.0449ZM31.9991 19.3938C31.9989 19.5957 31.9987 19.7977 31.9987 20C31.9987 20.2262 31.999 20.4521 31.9993 20.6778C32.0015 22.1056 32.0036 23.525 31.9206 24.9533C31.8275 26.8746 31.3923 28.5768 29.9843 29.9847C28.5794 31.3897 26.8743 31.828 24.953 31.9211C23.5008 32.0028 22.0579 32.0012 20.6059 31.9996C20.4041 31.9993 20.202 31.9991 19.9998 31.9991C19.7979 31.9991 19.5963 31.9993 19.3947 31.9996C17.9447 32.0012 16.5014 32.0028 15.0465 31.9211C13.1253 31.828 11.4231 31.3927 10.0152 29.9847C8.61029 28.5798 8.17201 26.8746 8.07894 24.9533C7.99724 23.501 7.99884 22.0557 8.00045 20.6051C8.00067 20.4035 8.00089 20.2018 8.00089 20C8.00089 19.7982 8.00067 19.5965 8.00045 19.3949C7.99884 17.9449 7.99724 16.5016 8.07894 15.0467C8.17201 13.1254 8.60729 11.4232 10.0152 10.0153C11.4201 8.6103 13.1253 8.17201 15.0465 8.07895C16.4987 7.99724 17.9417 7.99884 19.3936 8.00045C19.5955 8.00067 19.7975 8.00089 19.9998 8.00089C20.2016 8.00089 20.4033 8.00067 20.6048 8.00045C22.0548 7.99884 23.4982 7.99724 24.953 8.07895C26.8743 8.17201 28.5764 8.6073 29.9843 10.0153C31.3893 11.4202 31.8275 13.1254 31.9206 15.0467C32.0023 16.4989 32.0007 17.9418 31.9991 19.3938ZM28.4503 28.4537C28.8736 28.0334 29.1378 27.6252 29.3569 27.0788C29.8965 25.7207 29.8677 22.7573 29.849 20.841C29.846 20.5291 29.8432 20.245 29.8432 20C29.8432 19.7543 29.846 19.4691 29.8491 19.156C29.8678 17.239 29.8967 14.2756 29.3599 12.9182C29.1408 12.3718 28.8766 11.9666 28.4533 11.5433C28.0331 11.12 27.6248 10.8558 27.0784 10.6367C25.7211 10.0999 22.7578 10.1288 20.8408 10.1475C20.5277 10.1506 20.2425 10.1533 19.9968 10.1533C19.7511 10.1533 19.4659 10.1506 19.1528 10.1475C17.2358 10.1288 14.2725 10.0999 12.9151 10.6367C12.3688 10.8558 11.9635 11.123 11.5402 11.5433C11.1169 11.9636 10.8528 12.3718 10.6336 12.9182C10.0969 14.2756 10.1258 17.239 10.1445 19.156C10.1475 19.4691 10.1503 19.7543 10.1503 20C10.1503 20.2457 10.1475 20.5309 10.1445 20.844C10.1258 22.7604 10.0969 25.7219 10.6336 27.0818C10.8528 27.6282 11.1169 28.0334 11.5402 28.4567C11.9605 28.88 12.3688 29.1442 12.9151 29.3633C14.2725 29.9001 17.2358 29.8712 19.1528 29.8525C19.4659 29.8494 19.7511 29.8467 19.9968 29.8467C20.2417 29.8467 20.5259 29.8494 20.8378 29.8525C22.7541 29.8711 25.7174 29.8999 27.0754 29.3603C27.6218 29.1412 28.0271 28.877 28.4503 28.4537Z" fill="#547147"/>
</svg>
