<svg width="200" height="64" viewBox="0 0 200 64" fill="none" xmlns="http://www.w3.org/2000/svg">
<path d="M39.0142 52.814C39.0142 52.814 41.2793 52.9536 42.0705 56.2272C42.0705 56.2272 42.3033 58.5388 43.8702 58.7716C42.7532 59.0043 42.2877 59.4697 42.2102 59.9041C41.0931 58.6785 40.7518 57.1736 40.6122 56.3047C40.4725 55.3273 39.2314 53.8069 39.2314 53.8069L39.0142 52.814Z" fill="#E5880E"/>
<path d="M34.499 50.5178C34.499 50.5178 39.0293 49.6489 40.9065 52.6588C43.4199 56.677 46.3832 56.3047 48.307 55.4979C47.0503 56.646 46.9417 57.9182 46.9417 57.9182C46.9417 57.9182 42.4425 57.9648 40.5963 54.7998C39.4016 53.2173 38.4087 52.907 38.4087 52.907L34.499 50.5178Z" fill="#E8AE08"/>
<path d="M34.4219 50.2851L36.7956 41.5349" stroke="#404936" stroke-width="0.396196" stroke-miterlimit="10"/>
<path d="M38.7968 60.4161H27.1764C26.835 60.4161 26.5713 60.1369 26.5713 59.8111V50.9988H39.4174V59.7955C39.4174 60.1369 39.1381 60.4161 38.7968 60.4161Z" fill="#61664A"/>
<path d="M22.5684 40.573L30.217 50.735" stroke="#404936" stroke-width="0.396196" stroke-miterlimit="10"/>
<path d="M44.0253 40.573L36.3921 50.735" stroke="#404936" stroke-width="0.396196" stroke-miterlimit="10"/>
<path d="M32.1877 50.2851L29.814 41.5349" stroke="#404936" stroke-width="0.396196" stroke-miterlimit="10"/>
<path d="M55.7077 21.49C55.7077 32.164 49.1606 40.9453 40.7827 41.9692C46.7558 38.6181 50.9603 30.7211 50.9603 21.49C50.9603 12.2743 46.7558 4.36189 40.7827 1.01074C49.1606 2.05022 55.7077 10.816 55.7077 21.49Z" fill="#404936"/>
<path d="M25.6404 41.9692C17.2625 40.9453 10.7153 32.164 10.7153 21.49C10.7153 10.816 17.2625 2.0347 25.6404 1.01074C19.6672 4.36189 15.4628 12.2743 15.4628 21.49C15.4628 30.7211 19.6672 38.6181 25.6404 41.9692Z" fill="#404936"/>
<path d="M32.6684 3.02784C32.6684 0.88683 30.5119 -0.556025 28.5105 0.235218C27.9519 0.452422 27.3934 0.716169 26.8504 1.02646C20.8773 4.37761 16.6729 12.29 16.6729 21.5057C16.6729 30.7214 20.8773 38.6338 26.8504 41.9849C27.3934 42.2797 27.9364 42.5435 28.5105 42.7762C30.4963 43.5674 32.6684 42.1246 32.6684 39.9835V3.02784Z" fill="#547147"/>
<path d="M28.1227 48.1285C27.2694 50.3936 32.6374 51.1228 32.6374 51.1228C32.6374 51.1228 32.4357 53.9465 33.0563 50.828C33.6769 47.7096 31.8152 45.3824 31.1791 45.1031C30.543 44.7929 28.976 45.8478 28.1227 48.1285ZM31.8307 47.3372C32.3737 47.8803 32.9632 49.9592 32.9632 49.9592L32.7771 50.5488C32.7771 50.5488 29.5035 49.5558 29.9379 48.7025C30.3723 47.8492 31.3032 46.7942 31.8307 47.3372Z" fill="#E5880E"/>
<path d="M39.6656 1.01084C39.1226 0.716059 38.5796 0.452311 38.0056 0.219593C36.0197 -0.57165 33.8477 0.871205 33.8477 3.01222V39.9679C33.8477 42.1089 36.0042 43.5518 38.0056 42.7606C38.5641 42.5433 39.1226 42.2796 39.6656 41.9693C45.6387 38.6182 49.8432 30.7212 49.8432 21.4901C49.8432 12.2744 45.6387 4.3775 39.6656 1.01084Z" fill="#547147"/>
<path d="M33.6151 51.6504H32.3584V60.4472H33.6151V51.6504Z" fill="white"/>
<path d="M39.4277 56.1956V54.939H26.4731V56.1956H39.4277Z" fill="white"/>
<path d="M34.7629 44.9791C32.3427 44.7619 33.1029 50.1299 33.1029 50.1299C33.1029 50.1299 30.3258 50.7039 33.5063 50.4557C36.6712 50.2075 38.4089 47.7872 38.5175 47.1046C38.6261 46.4219 37.1832 45.1963 34.7629 44.9791ZM36.5316 48.3612C36.1593 49.0284 34.313 50.1609 34.313 50.1609L33.708 50.1454C33.708 50.1454 33.7855 46.7167 34.7164 46.9184C35.6473 47.1046 36.904 47.6941 36.5316 48.3612Z" fill="#E8AE08"/>
<path opacity="0.64" d="M26.5713 51.6969L39.4174 51.6814V52.4882L26.5713 52.0382V51.6969Z" fill="#61664A"/>
<path opacity="0.32" d="M33.0254 64.0001C38.8605 64.0001 43.5908 63.75 43.5908 63.4416C43.5908 63.1331 38.8605 62.8831 33.0254 62.8831C27.1903 62.8831 22.46 63.1331 22.46 63.4416C22.46 63.75 27.1903 64.0001 33.0254 64.0001Z" fill="#506C44"/>
<path d="M39.6965 51.697H26.2764C26.0902 51.697 25.9351 51.5419 25.9351 51.3557V50.3938C25.9351 50.2076 26.0902 50.0525 26.2764 50.0525H39.6965C39.8827 50.0525 40.0378 50.2076 40.0378 50.3938V51.3557C40.0378 51.5419 39.8827 51.697 39.6965 51.697Z" fill="#3E432F"/>
<path d="M33.8319 50.0525H32.1719V51.697H33.8319V50.0525Z" fill="white"/>
<path d="M50.7274 42.5744L50.9136 43.4277C50.9291 43.4897 50.9602 43.5363 51.0222 43.5518L51.829 43.8776C51.9686 43.9397 51.9841 44.1103 51.8445 44.1879L51.0843 44.6223C51.0377 44.6533 51.0067 44.6999 50.9912 44.7619L50.9291 45.6308C50.9136 45.7704 50.743 45.848 50.6344 45.7549L49.9827 45.1808C49.9362 45.1498 49.8741 45.1343 49.8276 45.1343L48.9743 45.336C48.8347 45.367 48.7105 45.2274 48.7726 45.0877L49.1294 44.281C49.145 44.2344 49.145 44.1724 49.1139 44.1258L48.6485 43.3811C48.5709 43.257 48.664 43.1019 48.8191 43.1174L49.688 43.2105C49.75 43.2105 49.7966 43.195 49.8431 43.1484L50.4016 42.4813C50.5257 42.3882 50.6964 42.4347 50.7274 42.5744Z" fill="#E8AE08"/>
<path d="M15.1679 44.2344L15.9592 44.6068C16.0057 44.6378 16.0678 44.6223 16.1298 44.6068L16.8901 44.1724C17.0142 44.0948 17.1693 44.2034 17.1538 44.343L17.0452 45.2118C17.0452 45.2739 17.0607 45.3204 17.1073 45.367L17.7589 45.9565C17.8675 46.0496 17.8209 46.2358 17.6813 46.2668L16.828 46.422C16.7659 46.4375 16.7194 46.4685 16.7039 46.5306L16.347 47.3218C16.285 47.4614 16.0988 47.4614 16.0367 47.3373L15.6179 46.5771C15.5868 46.5306 15.5403 46.4995 15.4782 46.484L14.6094 46.3909C14.4698 46.3754 14.4077 46.2048 14.5008 46.0962L15.1059 45.4601C15.1524 45.4135 15.1679 45.367 15.1524 45.3049L14.9662 44.4516C14.8887 44.2965 15.0283 44.1724 15.1679 44.2344Z" fill="#E8AE08"/>
<path d="M2.29099 21.9864L2.35305 22.8552C2.35305 22.9173 2.38408 22.9638 2.44614 22.9949L3.20635 23.4448C3.33047 23.5224 3.31496 23.7085 3.19084 23.7551L2.38408 24.0809C2.33754 24.0964 2.29099 24.1429 2.27548 24.205L2.0893 25.0583C2.05827 25.1979 1.8721 25.2445 1.77901 25.1359L1.22049 24.4687C1.18946 24.4222 1.1274 24.4067 1.06534 24.4067L0.196526 24.4843C0.056895 24.4998 -0.0517056 24.3446 0.0258673 24.2205L0.491304 23.4758C0.522334 23.4293 0.522332 23.3672 0.506818 23.3207L0.165497 22.5139C0.103439 22.3743 0.227556 22.2347 0.367187 22.2812L1.22049 22.4984C1.28255 22.5139 1.32909 22.4984 1.37563 22.4519L2.02725 21.8778C2.10482 21.7692 2.27548 21.8468 2.29099 21.9864Z" fill="#E8AE08"/>
<path d="M59.2607 12.0727L59.9278 12.6467C59.9744 12.6777 60.0364 12.6932 60.083 12.6777L60.9363 12.4605C61.0759 12.4295 61.2 12.5691 61.138 12.6932L60.7967 13.5C60.7811 13.5465 60.7811 13.6086 60.8122 13.6551L61.2776 14.3998C61.3552 14.524 61.2621 14.6791 61.1069 14.6636L60.2381 14.586C60.1761 14.586 60.1295 14.6015 60.083 14.6481L59.5245 15.3152C59.4314 15.4238 59.2452 15.3773 59.2142 15.2376L59.0125 14.3843C58.997 14.3223 58.9659 14.2757 58.9039 14.2602L58.0971 13.9344C57.9575 13.8879 57.942 13.7017 58.0661 13.6241L58.8108 13.1742C58.8573 13.1432 58.8884 13.0966 58.8884 13.0346L58.9349 12.1657C58.9814 12.0416 59.1521 11.9796 59.2607 12.0727Z" fill="#E8AE08"/>
<path opacity="0.33" d="M49.9209 21.49C49.9209 20.5436 49.8744 19.6128 49.7813 18.6819C47.5162 31.5745 34.7166 35.9961 33.9409 36.2599V39.9524C33.9409 42.0934 36.0974 43.5362 38.0988 42.745C38.6573 42.5278 39.2159 42.264 39.7589 41.9537C45.732 38.6181 49.9209 30.7212 49.9209 21.49Z" fill="#547147"/>
<path opacity="0.33" d="M55.6302 23.5071C53.7374 29.2475 48.7417 34.2897 46.942 35.9653C45.2819 38.5562 43.172 40.6197 40.7827 41.9694C48.6176 41.0075 54.8544 33.2502 55.6302 23.5071Z" fill="#404936"/>
<path opacity="0.33" d="M32.7617 28.301C32.6065 30.2869 31.2568 33.7466 26.8661 34.7861C22.491 35.8256 18.4107 30.442 18.0073 29.899C19.6674 35.3446 22.9099 39.7198 26.9592 41.9849C27.5022 42.2797 28.0453 42.5434 28.6193 42.7761C30.6052 43.5674 32.7772 42.1245 32.7772 39.9835V28.301H32.7617Z" fill="#547147"/>
<path opacity="0.33" d="M16.968 37.5943C19.3882 39.999 22.367 41.566 25.6251 41.9694C21.1879 39.487 17.7282 34.4758 16.2388 28.301C17.03 32.49 17.03 35.9652 16.968 37.5943Z" fill="#404936"/>
<path opacity="0.39" d="M28.6038 0.235218C28.0453 0.452422 27.4868 0.716169 26.9437 1.02646C22.2428 3.66394 18.659 9.10955 17.3247 15.7808C18.5193 12.6624 22.6152 4.70341 32.7462 6.5031V3.02784C32.7617 0.88683 30.5897 -0.556025 28.6038 0.235218Z" fill="#547147"/>
<path opacity="0.39" d="M25.6405 1.01074C17.5419 2.00367 11.1499 10.2419 10.731 20.4505C12.903 11.2193 19.0933 6.7201 20.1793 5.99092C21.7308 3.88094 23.577 2.17433 25.6405 1.01074Z" fill="#404936"/>
<path opacity="0.39" d="M38.7194 6.14616C42.7066 5.19977 45.189 6.8288 46.787 8.48886C45.0183 5.21529 42.5825 2.60884 39.7589 1.01084C39.2159 0.716059 38.6729 0.452311 38.0988 0.219593C36.113 -0.57165 33.9409 0.871205 33.9409 3.01222V13.4535C34.515 10.3351 35.8027 6.84431 38.7194 6.14616Z" fill="#547147"/>
<g opacity="0.39">
<path d="M50.1999 14.8189L50.2154 14.8499C50.2154 14.8499 50.1999 14.7723 50.1533 14.6172C50.1688 14.6948 50.1843 14.7568 50.1999 14.8189Z" fill="#404936"/>
<path d="M48.5555 4.56369C46.3059 2.62437 43.6529 1.36769 40.7827 1.02637C44.9561 3.36907 48.2452 7.91484 49.8743 13.5932C49.3157 11.3901 48.2918 6.93742 48.5555 4.56369Z" fill="#404936"/>
</g>
<path d="M92.0728 38.1216H92.1769C92.7671 38.1216 93.3919 38.0174 94.0862 37.7744C94.9888 37.462 95.7872 37.0107 96.4815 36.3858C98.4602 34.789 99.4322 32.4284 99.4322 29.2694C99.4322 27.1518 98.8074 25.4855 97.5577 24.2705C96.3427 23.1249 94.7111 22.5348 92.6976 22.5348C88.6013 22.5348 84.991 23.8192 81.8667 26.3881C80.7559 27.2907 79.7839 28.2974 78.9507 29.4083C78.2912 30.2414 77.8746 30.9704 77.6663 31.5258C77.6663 31.5605 77.6663 31.5605 77.6316 31.5605C77.5621 31.5605 77.458 31.4911 77.3191 31.3175C77.1456 31.144 76.9373 30.9357 76.7637 30.6927C76.2777 30.0331 76 29.4777 76 28.9569C76 26.9782 77.8051 24.8607 81.4502 22.6736C85.1299 20.4519 88.7402 19.3411 92.2464 19.3411C95.0582 19.3411 97.3494 20.1742 99.1198 21.8058C100.994 23.5415 101.897 25.8327 101.897 28.6792C101.897 31.3175 101.099 33.7128 99.5017 35.7957C97.766 38.0869 95.5789 39.2671 92.9406 39.2671C92.1422 39.2671 91.3785 39.163 90.6495 38.92L89.7469 38.434C89.5733 38.3646 89.3651 38.2604 89.1915 38.1563C89.1915 38.2951 89.1915 38.434 89.1568 38.5381L89.0873 38.8506C88.9138 39.7184 88.5666 40.3086 88.0112 40.6557C87.8376 40.7946 87.6293 40.864 87.3863 40.9334L87.1086 40.9682H86.692L86.3796 40.9334C86.0672 40.864 85.7895 40.7599 85.5812 40.621C84.991 40.2392 84.7828 39.5796 84.9563 38.6423C85.0605 38.0869 85.3382 37.6009 85.8242 37.1496C86.1366 36.8719 86.449 36.6636 86.7615 36.5594C86.7962 35.4833 86.8656 34.0947 87.0392 32.359L87.2128 30.0678C87.2822 29.2347 87.2822 28.4362 87.2822 27.7072C87.2822 27.1171 87.2475 26.5964 87.2128 26.1451C87.1086 25.4855 86.9351 24.9995 86.7268 24.6524H87.3169L87.9418 24.6871C88.4278 24.7565 88.8443 24.8954 89.1915 25.0342C90.1288 25.4855 90.6148 26.3187 90.6148 27.6031C90.6148 27.6725 90.5454 28.1238 90.4065 28.9222L90.3023 29.5124L90.1982 30.1372C90.0941 30.6927 90.0246 31.1787 89.9552 31.5953C89.5733 33.7128 89.3651 35.3444 89.2956 36.5247C89.6428 37.1843 90.5801 37.705 92.0728 38.1216ZM87.0045 40.2044C87.0739 39.9614 87.1433 39.3019 87.2475 38.1563C86.6573 38.2257 86.2755 38.5034 86.1713 39.0589C86.1019 39.4407 86.1713 39.7184 86.4143 39.9267C86.5185 39.9962 86.6226 40.0656 86.7268 40.135C86.7962 40.2044 86.8656 40.2044 86.935 40.2044H87.0045V40.2044Z" fill="#404936"/>
<path d="M104.987 38.573C104.292 38.573 103.737 38.3994 103.286 38.0175C102.8 37.6357 102.591 37.115 102.591 36.4554C102.591 35.6223 102.973 34.8585 103.772 34.1642C104.57 33.4699 105.507 33.0881 106.618 33.0881C106.722 33.0881 106.826 33.0881 106.965 33.1228L107.069 33.1575H107.243C107.382 33.1575 107.451 33.0534 107.451 32.8798C107.451 32.2202 107 31.8731 106.063 31.7689C105.681 31.7342 105.299 31.7689 104.882 31.8037C104.501 31.8731 104.188 31.9078 103.945 32.012C103.841 32.0814 103.737 32.0467 103.633 31.9772C103.529 31.8731 103.459 31.7342 103.459 31.5954C103.459 31.0052 103.598 30.5192 103.841 30.1721C104.223 29.6861 104.813 29.4778 105.646 29.4778H106.202C106.445 29.5125 106.653 29.5472 106.861 29.5472C107.417 29.6166 107.903 29.7555 108.354 29.9291C109.499 30.4498 110.09 31.3177 110.09 32.5674C110.055 32.8798 110.02 33.2964 110.02 33.8171C110.02 34.5114 110.02 35.1362 110.055 35.7264C110.194 37.3927 110.506 38.33 110.992 38.573V38.7465C110.992 38.816 110.992 38.8507 110.957 38.8507C110.888 38.9548 110.68 39.0243 110.367 39.0243C110.194 39.0243 110.055 38.9896 109.881 38.9548C109.673 38.8854 109.465 38.7813 109.291 38.6424C108.77 38.2605 108.389 37.601 108.18 36.7331C107.417 37.9481 106.34 38.573 104.987 38.573ZM106.306 36.872C106.583 36.872 106.861 36.8025 107.174 36.629C107.521 36.4554 107.764 36.2124 107.937 35.9694C107.868 35.8652 107.833 35.6917 107.833 35.4834V34.8585C107.798 34.3378 107.694 34.0601 107.521 34.0601C107.069 34.0601 106.618 34.2684 106.202 34.7197C105.75 35.171 105.542 35.5875 105.542 36.0041C105.473 36.5943 105.75 36.872 106.306 36.872Z" fill="#404936"/>
<path d="M117.901 30.6581C119.046 31.6301 119.636 32.8451 119.636 34.3378C119.636 35.3445 119.359 36.2471 118.768 37.0455C118.144 37.9828 117.31 38.4688 116.269 38.4688C115.089 38.4688 114.186 38.0523 113.561 37.2191C113.422 38.1911 113.318 39.2325 113.249 40.4128C113.179 40.8294 113.179 41.2113 113.179 41.5931C113.145 41.8708 113.145 42.0791 113.145 42.1833C113.145 42.3568 113.145 42.5304 113.179 42.6693C113.249 42.8775 113.318 43.0511 113.457 43.19C112.867 43.4677 112.312 43.3983 111.721 43.0164C111.131 42.6345 110.854 42.1486 110.888 41.5584L110.958 40.1004L111.027 38.6771C111.166 36.9067 111.235 35.2057 111.235 33.5741V33.1922L111.166 32.7062C111.097 32.3244 110.992 32.0466 110.854 31.8731H111.131L111.34 31.8384H111.548C111.964 31.8384 112.312 31.8731 112.624 31.9078C113.527 32.1161 114.013 32.6715 114.013 33.6088C114.013 33.8171 114.013 33.9907 113.978 34.0948L113.943 34.3378L113.908 34.6502C113.874 34.8932 113.839 35.1015 113.839 35.3098C113.908 35.7264 114.117 36.1082 114.429 36.4207C114.811 36.8025 115.193 36.9761 115.644 36.9761C116.13 36.9761 116.547 36.6984 116.894 36.1429C117.172 35.6569 117.276 35.1362 117.276 34.5461C117.276 33.6782 116.894 32.8798 116.165 32.1508C115.401 31.3524 114.568 31.0399 113.596 31.2135L113.249 31.3177L112.971 31.4218C112.763 31.4912 112.589 31.5259 112.45 31.5259C112.416 31.5259 112.381 31.5259 112.277 31.4912C112.173 31.4565 112.069 31.4218 111.999 31.3871C111.791 31.2482 111.687 31.0746 111.687 30.8663C111.687 30.4498 111.895 30.1026 112.277 29.7902C112.763 29.4778 113.388 29.3042 114.151 29.3042C115.575 29.3389 116.824 29.7555 117.901 30.6581Z" fill="#404936"/>
<path d="M128.558 38.9895L128.037 39.0242C127.62 39.0242 127.273 38.9895 126.961 38.9201C126.162 38.7465 125.711 38.2258 125.676 37.358C124.461 38.573 123.281 39.1631 122.135 39.1631H121.788C121.615 39.1284 121.441 39.059 121.302 38.9548C120.886 38.6424 120.712 37.9828 120.782 36.9761C120.886 36.1082 120.955 35.4139 120.99 34.9279C121.094 33.8518 121.163 33.1228 121.163 32.6715C121.163 32.0119 121.129 31.4565 121.059 30.9358C120.99 30.5539 120.92 30.2415 120.816 29.9291L120.712 29.6166L120.608 29.3736C120.539 29.2001 120.504 29.0959 120.504 29.0265C120.504 28.8529 120.608 28.7488 120.851 28.7488C121.441 28.7488 122.031 29.0265 122.587 29.5819C123.212 30.2068 123.524 31.0399 123.524 32.0467C123.524 33.8171 123.524 34.9974 123.559 35.5875C123.593 36.2471 123.663 36.5595 123.836 36.5595C124.079 36.5595 124.461 36.2471 125.052 35.657C125.295 35.4487 125.538 35.2057 125.746 34.9627C125.919 34.7197 126.093 34.5461 126.232 34.3725C126.405 33.6088 126.51 32.8104 126.614 32.0119C126.718 31.2482 126.787 30.7275 126.787 30.4845C126.787 30.3109 126.787 30.1374 126.753 29.9638C126.683 29.7555 126.614 29.5819 126.475 29.4431C127.065 29.1306 127.62 29.1306 128.211 29.4431C128.801 29.7902 129.078 30.3456 129.044 31.1094C129.044 31.2829 129.009 31.5259 128.974 31.8731L128.94 32.3938L128.905 32.9145C128.835 33.8171 128.766 34.6155 128.731 35.2751C128.627 37.2885 128.731 38.5382 129.078 39.0242H128.558V38.9895Z" fill="#404936"/>
<path d="M148.796 38.1216H148.901C149.491 38.1216 150.116 38.0174 150.81 37.7744C151.712 37.462 152.511 37.0107 153.205 36.3858C155.184 34.789 156.156 32.4284 156.156 29.2694C156.156 27.1518 155.531 25.4855 154.281 24.2705C153.066 23.1249 151.435 22.5348 149.421 22.5348C145.325 22.5348 141.715 23.8192 138.59 26.3881C137.48 27.2907 136.508 28.2974 135.674 29.4083C135.015 30.2414 134.598 30.9704 134.39 31.5258C134.39 31.5605 134.39 31.5605 134.355 31.5605C134.286 31.5605 134.182 31.4911 134.043 31.3175C133.869 31.144 133.661 30.9357 133.487 30.6927C133.001 30.0331 132.724 29.4777 132.724 28.9569C132.724 26.9782 134.529 24.8607 138.174 22.6736C141.854 20.4519 145.464 19.3411 148.97 19.3411C151.782 19.3411 154.073 20.1742 155.843 21.8058C157.718 23.5415 158.621 25.8327 158.621 28.6792C158.621 31.3175 157.822 33.7128 156.225 35.7957C154.49 38.0869 152.303 39.2671 149.664 39.2671C148.866 39.2671 148.102 39.163 147.373 38.92L146.471 38.434C146.297 38.3646 146.089 38.2604 145.915 38.1563C145.915 38.2951 145.915 38.434 145.88 38.5381L145.811 38.8506C145.637 39.7184 145.29 40.3086 144.735 40.6557C144.561 40.7946 144.353 40.864 144.11 40.9334L143.832 40.9682H143.346L143.034 40.9334C142.721 40.864 142.444 40.7599 142.235 40.621C141.645 40.2392 141.437 39.5796 141.611 38.6423C141.715 38.0869 141.992 37.6009 142.478 37.1496C142.791 36.8719 143.103 36.6636 143.416 36.5594C143.45 35.4833 143.52 34.0947 143.693 32.359L143.867 30.0678C143.936 29.2347 143.936 28.4362 143.936 27.7072C143.936 27.1171 143.902 26.5964 143.867 26.1451C143.763 25.4855 143.589 24.9995 143.381 24.6524H143.971L144.596 24.6871C145.082 24.7565 145.499 24.8954 145.846 25.0342C146.783 25.4855 147.269 26.3187 147.269 27.6031C147.269 27.6725 147.2 28.1238 147.061 28.9222L146.957 29.5124L146.852 30.1372C146.748 30.6927 146.679 31.1787 146.609 31.5953C146.228 33.7128 146.019 35.3444 145.95 36.5247C146.366 37.1843 147.304 37.705 148.796 38.1216ZM143.728 40.2044C143.798 39.9614 143.867 39.3019 143.971 38.1563C143.381 38.2257 142.999 38.5034 142.895 39.0589C142.826 39.4407 142.895 39.7184 143.138 39.9267C143.242 39.9962 143.346 40.0656 143.45 40.135C143.52 40.2044 143.589 40.2044 143.659 40.2044H143.728V40.2044Z" fill="#404936"/>
<path d="M164.557 38.9894C164.591 38.5728 164.626 38.1909 164.661 37.8785C163.862 38.5728 162.994 38.8852 162.161 38.8852C160.599 38.8852 159.766 37.7744 159.592 35.5874C159.523 34.8931 159.523 33.9905 159.592 32.8102L159.662 32.1506L159.697 31.5258C159.731 31.0398 159.731 30.6926 159.731 30.4149C159.731 30.0678 159.731 29.8248 159.697 29.6512C159.627 29.1652 159.558 28.8181 159.454 28.5403H159.801L160.287 28.5056C160.703 28.5056 161.05 28.5403 161.363 28.6098C162.196 28.818 162.613 29.3388 162.613 30.1719C162.543 30.5538 162.439 30.9356 162.37 31.3869L162.265 31.9771L162.196 32.5672C161.918 33.9211 161.779 35.1708 161.779 36.3511C161.779 36.976 161.988 37.2884 162.37 37.2884C163.168 37.2884 163.793 36.8718 164.244 36.0734C164.626 35.3791 164.8 34.5112 164.8 33.5739V33.1921L164.73 32.7061C164.661 32.3242 164.557 32.0118 164.418 31.8382H164.8L165.286 31.8035C165.702 31.8035 166.049 31.8382 166.292 31.9076C167.091 32.1159 167.507 32.6714 167.507 33.5739C167.577 33.7475 167.507 34.3029 167.403 35.3097L167.334 36.0039L167.23 36.5594L167.195 36.9412L167.126 37.7397C167.473 37.5661 167.785 37.3925 168.098 37.1842C168.341 37.0454 168.584 36.9065 168.861 36.6982L169.486 36.3164C169.556 36.3858 169.59 36.4899 169.59 36.6288C169.59 37.0107 168.722 37.8438 166.952 39.0588L166.848 39.9961L166.744 40.9334C166.674 41.6277 166.605 42.322 166.535 42.9468C166.501 43.3981 166.397 43.8494 166.223 44.266C165.841 45.1338 165.251 45.5504 164.452 45.5504C163.758 45.5504 163.168 45.2033 162.613 44.5437C162.127 43.8841 161.849 43.2245 161.849 42.4955C161.849 41.593 162.231 40.7598 162.994 40.0655C163.272 39.7878 163.55 39.5795 163.897 39.3712C164.036 39.3018 164.175 39.1977 164.314 39.1282L164.522 39.0241L164.557 38.9894ZM164.383 42.0442L164.452 41.4541L164.522 40.7945C163.932 41.2805 163.619 41.7665 163.619 42.2873C163.619 42.6691 163.828 42.9815 164.209 43.2593C164.279 42.9468 164.348 42.565 164.383 42.0442Z" fill="#404936"/>
<path d="M168.826 35.7609C169 34.4417 169.069 33.3656 169.069 32.4977C169.069 31.977 169.035 31.491 168.965 31.0744C168.896 30.762 168.792 30.4843 168.688 30.2066L168.514 29.9289L168.41 29.6859C168.34 29.5123 168.306 29.4081 168.306 29.3734C168.306 29.1998 168.445 29.0957 168.722 29.0957C169.312 29.0957 169.868 29.3387 170.458 29.8594C171.118 30.4843 171.43 31.2827 171.43 32.2547L171.187 36.351C171.187 36.4552 171.187 36.5593 171.222 36.6287C171.291 36.837 171.361 36.9412 171.499 36.9412C171.777 36.9412 172.263 36.5593 172.957 35.8303C173.582 35.136 173.964 34.65 174.068 34.3029C174.138 33.678 174.172 33.0531 174.172 32.4283C174.172 31.5257 174.034 30.7967 173.791 30.1718L173.617 29.8941L173.513 29.6511C173.443 29.5123 173.409 29.4428 173.409 29.3734C173.409 29.1998 173.548 29.0957 173.825 29.0957C174.415 29.0957 174.971 29.3387 175.561 29.8594C176.221 30.4843 176.533 31.2827 176.533 32.2547L176.29 36.351V36.4552L176.325 36.6634C176.394 36.837 176.533 36.9412 176.707 36.9412H176.811L176.984 36.8717C177.158 36.8023 177.297 36.7329 177.505 36.594C177.991 36.2122 178.477 35.5526 178.963 34.6153C179.241 33.8169 179.38 33.0184 179.484 32.1853C179.484 31.9076 179.484 31.6646 179.484 31.3521V30.8314C179.484 30.6579 179.484 30.4843 179.449 30.3107C179.38 30.1024 179.31 29.9288 179.171 29.79L179.241 29.7553L179.414 29.7206C179.484 29.6858 179.727 29.6859 180.109 29.6859C180.49 29.6859 180.838 29.8594 181.185 30.1718C181.567 30.5537 181.74 30.9703 181.74 31.4563C181.775 31.8034 181.74 32.3936 181.671 33.2267L181.636 33.7822L181.601 34.3723L181.497 35.5873C181.358 37.6007 181.462 38.8505 181.81 39.3365H180.907C180.213 39.3365 179.692 39.2323 179.345 39.0588C178.859 38.8158 178.546 38.3992 178.477 37.7743C177.262 38.9893 176.151 39.5795 175.11 39.5795H175.006L174.832 39.5447C174.658 39.51 174.485 39.4406 174.346 39.3018C173.964 38.9546 173.756 38.295 173.756 37.323C173.166 37.9826 172.61 38.4686 172.09 38.8157C171.361 39.3018 170.632 39.5795 169.972 39.5795C169.069 39.6489 168.618 38.9199 168.653 37.4619C168.688 36.7329 168.792 36.1427 168.826 35.7609Z" fill="#404936"/>
<path d="M187.85 29.3734C188.614 29.3734 189.239 29.79 189.725 30.6231C190.176 31.3521 190.384 32.1506 190.384 33.0184C190.384 35.4137 189.794 37.0453 188.579 37.9479C188.197 38.2256 187.711 38.4339 187.191 38.538C187.017 38.5727 186.809 38.6075 186.635 38.6075H186.288C185.247 38.6075 184.379 38.1562 183.684 37.2883C183.059 36.4899 182.747 35.4831 182.747 34.3376C182.747 33.0184 183.129 31.8034 183.893 30.7273C184.17 30.276 184.552 29.8594 185.038 29.4428C185.247 29.2345 185.524 29.2345 185.906 29.4428C186.253 29.6164 186.496 29.8594 186.6 30.2066C186.913 29.6164 187.295 29.3734 187.85 29.3734ZM188.996 33.1573C188.996 33.435 188.892 33.6433 188.718 33.7821C188.579 33.8863 188.44 33.9557 188.232 33.9557C187.538 33.9557 187.017 33.6433 186.67 33.0184C186.531 32.7754 186.462 32.5324 186.392 32.2547C186.323 32.0117 186.323 31.8034 186.323 31.6298C185.594 32.3588 185.212 33.2961 185.212 34.407V34.6153C185.212 34.7542 185.212 34.8583 185.247 34.9624C185.281 35.2749 185.351 35.5526 185.455 35.8303C185.733 36.594 186.253 36.9412 187.017 36.837H187.052L187.121 36.8023C187.225 36.8023 187.329 36.7676 187.399 36.7329C187.677 36.6287 187.92 36.4552 188.163 36.2122C188.857 35.4831 189.239 34.3376 189.239 32.7407C189.239 32.1853 189.204 31.7687 189.135 31.4563C188.996 31.0744 188.822 30.8314 188.544 30.7967C188.336 30.7967 188.197 30.9008 188.128 31.0744C188.058 31.248 188.024 31.4216 188.058 31.6646C188.128 32.2547 188.301 32.5324 188.649 32.5324C188.857 32.6366 188.996 32.8449 188.996 33.1573Z" fill="#404936"/>
<path d="M199.48 38.9895L198.959 39.0242C198.542 39.0242 198.195 38.9895 197.883 38.9201C197.084 38.7465 196.633 38.2258 196.598 37.3579C195.383 38.5729 194.203 39.1631 193.057 39.1631H192.71C192.537 39.1284 192.363 39.059 192.224 38.9548C191.808 38.6424 191.634 37.9828 191.703 36.9761C191.808 36.1082 191.877 35.4139 191.912 34.9279C192.016 33.8518 192.085 33.1228 192.085 32.6715C192.085 32.0119 192.051 31.4565 191.981 30.9358C191.912 30.5539 191.842 30.2415 191.738 29.9291L191.634 29.6166L191.53 29.3736C191.46 29.2 191.426 29.0959 191.426 29.0265C191.426 28.8529 191.53 28.7488 191.773 28.7488C192.363 28.7488 192.953 29.0265 193.509 29.5819C194.134 30.2068 194.446 31.0399 194.446 32.0466C194.446 33.8171 194.446 34.9974 194.481 35.5875C194.515 36.2471 194.585 36.5595 194.758 36.5595C195.001 36.5595 195.383 36.2471 195.973 35.6569C196.216 35.4487 196.459 35.2057 196.668 34.9627C196.841 34.7197 197.015 34.5461 197.154 34.3725C197.327 33.6088 197.431 32.8104 197.536 32.0119C197.64 31.2482 197.709 30.7275 197.709 30.4845C197.709 30.3109 197.709 30.1373 197.674 29.9638C197.605 29.7555 197.536 29.5819 197.397 29.4431C197.987 29.1306 198.542 29.1306 199.132 29.4431C199.723 29.7902 200 30.3456 199.966 31.1093C199.966 31.2829 199.931 31.5259 199.896 31.8731L199.861 32.3938L199.827 32.9145C199.757 33.8171 199.688 34.6155 199.653 35.2751C199.549 37.2885 199.653 38.5382 200 39.0242H199.48V38.9895ZM197.709 27.6379C197.293 27.985 196.841 28.1586 196.321 28.1586C195.835 28.1586 195.349 27.9851 194.828 27.6726L194.55 27.4991L194.272 27.3255C194.064 27.2213 193.89 27.1519 193.717 27.1519C193.543 27.1519 193.37 27.2213 193.196 27.3949C193.127 27.4643 193.092 27.499 193.092 27.5685L193.057 27.6032V27.6379C192.78 27.6379 192.675 27.5338 192.675 27.2908C192.675 26.6312 193.127 26.284 193.995 26.284C194.272 26.2493 194.62 26.284 195.071 26.3188L195.557 26.3535C195.73 26.3882 195.869 26.3882 195.939 26.3882C196.043 26.3882 196.147 26.3882 196.251 26.3535C196.39 26.284 196.529 26.2146 196.633 26.1105C196.945 25.8675 197.154 25.4856 197.223 24.9302L197.258 24.9649C197.327 24.9649 197.362 24.9996 197.431 25.0343C197.57 25.1385 197.674 25.2426 197.779 25.3468C197.952 25.5203 198.091 25.6939 198.16 25.8675C198.265 26.041 198.334 26.2493 198.334 26.4229C198.334 26.9089 198.126 27.2908 197.709 27.6379Z" fill="#404936"/>
</svg>
