<svg width="40" height="40" viewBox="0 0 40 40" fill="none" xmlns="http://www.w3.org/2000/svg">
<path fill-rule="evenodd" clip-rule="evenodd" d="M20 0C8.95431 0 0 8.95431 0 20C0 31.0457 8.95431 40 20 40C31.0457 40 40 31.0457 40 20C40 8.95431 31.0457 0 20 0ZM30.6568 14C31.4497 14 31.6174 14.4011 31.4497 14.9481C31.1168 16.4525 27.9177 20.8777 27.9165 20.8765C27.6398 21.3141 27.5273 21.5317 27.9165 22.0245C28.0541 22.213 28.3464 22.4943 28.681 22.8162C29.0252 23.1474 29.4141 23.5216 29.725 23.8819C30.8533 25.1275 31.7036 26.1803 31.9396 26.9037C32.1552 27.6306 31.7803 27.9988 31.0305 27.9988H28.4052C27.7027 27.9988 27.3483 27.6117 26.5827 26.7755C26.2584 26.4213 25.8603 25.9864 25.3307 25.4663C23.7725 23.9924 23.1042 23.7995 22.7161 23.7995C22.1879 23.7995 22.0286 23.9477 22.0286 24.6841V26.9966C22.0286 27.6318 21.8226 28 20.1542 28C17.3708 28 14.3155 26.3415 12.1452 23.282C8.88989 18.8015 8 15.4139 8 14.7293C8 14.3482 8.14971 14.0012 8.90067 14.0012H11.526C12.1967 14.0012 12.4494 14.2894 12.6998 15.0034C13.9849 18.678 16.1503 21.8881 17.0402 21.8881C17.3756 21.8881 17.5277 21.7363 17.5277 20.9047V17.1077C17.4677 16.0252 17.0828 15.5573 16.7979 15.2109C16.6222 14.9972 16.4845 14.8298 16.4845 14.5928C16.4845 14.3035 16.736 14 17.1528 14H21.2801C21.837 14 22.0298 14.2917 22.0298 14.9481V20.0566C22.0298 20.6036 22.2718 20.7942 22.4382 20.7942C22.7712 20.7942 23.0503 20.6036 23.6611 20.0002C25.5535 17.9264 26.8889 14.7281 26.8889 14.7281C27.0566 14.347 27.362 14 28.0303 14H30.6568Z" fill="#547147"/>
</svg>
