<svg width="261" height="84" viewBox="0 0 261 84" fill="none" xmlns="http://www.w3.org/2000/svg">
<g clip-path="url(#clip0_1_381)">
<path d="M50.7729 68.7327C50.7729 68.7327 53.7208 68.9144 54.7505 73.1746C54.7505 73.1746 55.0534 76.1831 57.0927 76.4859C55.6389 76.7888 55.0332 77.3945 54.9323 77.9599C53.4785 76.3648 53.0343 74.4063 52.8526 73.2756C52.6709 72.0036 51.0556 70.0249 51.0556 70.0249L50.7729 68.7327Z" fill="#E5880E"/>
<path d="M44.8975 65.7445C44.8975 65.7445 50.7932 64.6138 53.2363 68.5308C56.5072 73.7602 60.3636 73.2757 62.8673 72.2257C61.2318 73.7198 61.0905 75.3755 61.0905 75.3755C61.0905 75.3755 55.2352 75.4361 52.8324 71.3171C51.2778 69.2577 49.9855 68.8539 49.9855 68.8539L44.8975 65.7445Z" fill="#E8AE08"/>
<path d="M44.7964 65.4416L47.8856 54.054" stroke="#404936" stroke-width="0.515612" stroke-miterlimit="10"/>
<path d="M50.4904 78.6259H35.3675C34.9233 78.6259 34.5801 78.2625 34.5801 77.8385V66.3701H51.2981V77.8183C51.2981 78.2625 50.9346 78.6259 50.4904 78.6259Z" fill="#61664A"/>
<path d="M29.3711 52.8022L39.3252 66.0272" stroke="#404936" stroke-width="0.515612" stroke-miterlimit="10"/>
<path d="M57.2947 52.8022L47.3608 66.0272" stroke="#404936" stroke-width="0.515612" stroke-miterlimit="10"/>
<path d="M41.8895 65.4416L38.8003 54.054" stroke="#404936" stroke-width="0.515612" stroke-miterlimit="10"/>
<path d="M72.4983 27.9673C72.4983 41.8585 63.9777 53.2865 53.0747 54.6191C60.8482 50.2579 66.3199 39.9808 66.3199 27.9673C66.3199 15.9739 60.8482 5.67664 53.0747 1.31543C63.9777 2.66821 72.4983 14.076 72.4983 27.9673Z" fill="#404936"/>
<path d="M33.3684 54.6191C22.4653 53.2865 13.9448 41.8585 13.9448 27.9673C13.9448 14.076 22.4653 2.64802 33.3684 1.31543C25.5949 5.67664 20.1232 15.9739 20.1232 27.9673C20.1232 39.9808 25.5949 50.2579 33.3684 54.6191Z" fill="#404936"/>
<path d="M42.515 3.94063C42.515 1.1543 39.7084 -0.723443 37.1038 0.306288C36.377 0.588959 35.6501 0.932202 34.9434 1.33602C27.1699 5.69723 21.6982 15.9945 21.6982 27.9879C21.6982 39.9812 27.1699 50.2785 34.9434 54.6397C35.6501 55.0233 36.3568 55.3666 37.1038 55.6694C39.6882 56.6992 42.515 54.8214 42.515 52.0351V3.94063Z" fill="#547147"/>
<path d="M36.5991 62.635C35.4886 65.5828 42.4746 66.5318 42.4746 66.5318C42.4746 66.5318 42.2122 70.2065 43.0198 66.1482C43.8274 62.0898 41.4045 59.0612 40.5767 58.6978C39.7489 58.2939 37.7096 59.6669 36.5991 62.635ZM41.4247 61.6052C42.1314 62.3119 42.8987 65.0175 42.8987 65.0175L42.6564 65.7847C42.6564 65.7847 38.3961 64.4925 38.9614 63.382C39.5268 62.2715 40.7382 60.8986 41.4247 61.6052Z" fill="#E5880E"/>
<path d="M51.6214 1.31551C50.9147 0.931885 50.208 0.588642 49.4609 0.28578C46.8765 -0.743951 44.0498 1.13379 44.0498 3.92012V52.0146C44.0498 54.8009 46.8563 56.6787 49.4609 55.6489C50.1878 55.3663 50.9147 55.023 51.6214 54.6192C59.3948 50.258 64.8665 39.9809 64.8665 27.9674C64.8665 15.974 59.3948 5.69691 51.6214 1.31551Z" fill="#547147"/>
<path d="M43.7468 67.2183H42.1113V78.6664H43.7468V67.2183Z" fill="white"/>
<path d="M51.3115 73.1335V71.498H34.4522V73.1335H51.3115Z" fill="white"/>
<path d="M45.2409 58.5362C42.0911 58.2535 43.0805 65.2395 43.0805 65.2395C43.0805 65.2395 39.4663 65.9866 43.6055 65.6635C47.7244 65.3405 49.9858 62.1907 50.1271 61.3023C50.2684 60.4139 48.3907 58.8189 45.2409 58.5362ZM47.5427 62.9378C47.0581 63.806 44.6554 65.2799 44.6554 65.2799L43.8679 65.2597C43.8679 65.2597 43.9689 60.7976 45.1803 61.06C46.3918 61.3023 48.0272 62.0696 47.5427 62.9378Z" fill="#E8AE08"/>
<path opacity="0.64" d="M34.5801 67.279L51.2981 67.2588V68.3087L34.5801 67.7232V67.279Z" fill="#61664A"/>
<path opacity="0.32" d="M42.9794 83.2904C50.5733 83.2904 56.7294 82.965 56.7294 82.5635C56.7294 82.1621 50.5733 81.8367 42.9794 81.8367C35.3855 81.8367 29.2295 82.1621 29.2295 82.5635C29.2295 82.965 35.3855 83.2904 42.9794 83.2904Z" fill="#506C44"/>
<path d="M51.6617 67.2791H34.1966C33.9543 67.2791 33.7524 67.0772 33.7524 66.8349V65.5831C33.7524 65.3408 33.9543 65.1389 34.1966 65.1389H51.6617C51.904 65.1389 52.1059 65.3408 52.1059 65.5831V66.8349C52.1059 67.0772 51.904 67.2791 51.6617 67.2791Z" fill="#3E432F"/>
<path d="M44.0291 65.1389H41.8687V67.2791H44.0291V65.1389Z" fill="white"/>
<path d="M66.0172 55.4068L66.2595 56.5173C66.2797 56.5981 66.3201 56.6587 66.4009 56.6788L67.4508 57.1029C67.6325 57.1836 67.6527 57.4057 67.471 57.5067L66.4816 58.072C66.4211 58.1124 66.3807 58.173 66.3605 58.2537L66.2797 59.3844C66.2595 59.5661 66.0374 59.6671 65.8961 59.5459L65.0481 58.7989C64.9875 58.7585 64.9068 58.7383 64.8462 58.7383L63.7357 59.0008C63.554 59.0412 63.3924 58.8595 63.4732 58.6777L63.9376 57.6278C63.9578 57.5672 63.9578 57.4865 63.9174 57.4259L63.3117 56.4568C63.2107 56.2952 63.3319 56.0933 63.5338 56.1135L64.6645 56.2347C64.7452 56.2347 64.8058 56.2145 64.8664 56.1539L65.5932 55.2857C65.7548 55.1645 65.9769 55.2251 66.0172 55.4068Z" fill="#E8AE08"/>
<path d="M19.7398 57.5673L20.7695 58.0519C20.8301 58.0923 20.9108 58.0721 20.9916 58.0519L21.981 57.4865C22.1425 57.3856 22.3444 57.5269 22.3242 57.7086L22.1829 58.8393C22.1829 58.9201 22.2031 58.9807 22.2636 59.0412L23.1116 59.8085C23.253 59.9296 23.1924 60.1719 23.0107 60.2123L21.9002 60.4142C21.8194 60.4344 21.7589 60.4748 21.7387 60.5555L21.2743 61.5853C21.1935 61.767 20.9512 61.767 20.8705 61.6055L20.3253 60.6161C20.2849 60.5555 20.2244 60.5152 20.1436 60.495L19.0129 60.3738C18.8312 60.3536 18.7504 60.1315 18.8716 59.9902L19.659 59.1624C19.7196 59.1018 19.7398 59.0412 19.7196 58.9605L19.4773 57.85C19.3763 57.6481 19.5581 57.4865 19.7398 57.5673Z" fill="#E8AE08"/>
<path d="M2.98152 28.6134L3.06228 29.7441C3.06228 29.8249 3.10266 29.8854 3.18343 29.9258L4.17278 30.5114C4.3343 30.6123 4.31411 30.8546 4.15259 30.9152L3.10266 31.3392C3.04209 31.3594 2.98152 31.4199 2.96133 31.5007L2.71904 32.6112C2.67866 32.7929 2.43637 32.8535 2.31522 32.7122L1.58835 31.844C1.54797 31.7834 1.46721 31.7632 1.38645 31.7632L0.255761 31.8641C0.0740436 31.8843 -0.0672901 31.6824 0.0336639 31.5209L0.639388 30.5517C0.679769 30.4912 0.679767 30.4104 0.659577 30.3498L0.21538 29.2999C0.134617 29.1182 0.296144 28.9365 0.477861 28.9971L1.58835 29.2797C1.66912 29.2999 1.72969 29.2797 1.79026 29.2192L2.63828 28.4721C2.73923 28.3308 2.96133 28.4317 2.98152 28.6134Z" fill="#E8AE08"/>
<path d="M77.1222 15.7116L77.9904 16.4587C78.051 16.4991 78.1318 16.5193 78.1923 16.4991L79.3028 16.2164C79.4845 16.176 79.6461 16.3578 79.5653 16.5193L79.1211 17.5692C79.1009 17.6298 79.1009 17.7105 79.1413 17.7711L79.747 18.7403C79.848 18.9018 79.7268 19.1037 79.5249 19.0835L78.3942 18.9826C78.3135 18.9826 78.2529 19.0027 78.1923 19.0633L77.4655 19.9315C77.3443 20.0729 77.102 20.0123 77.0616 19.8306L76.7992 18.7201C76.779 18.6393 76.7386 18.5787 76.6578 18.5586L75.6079 18.1345C75.4262 18.074 75.406 17.8317 75.5675 17.7307L76.5367 17.1452C76.5973 17.1048 76.6376 17.0442 76.6376 16.9635L76.6982 15.8328C76.7588 15.6713 76.9809 15.5905 77.1222 15.7116Z" fill="#E8AE08"/>
<path opacity="0.33" d="M64.9669 27.9673C64.9669 26.7356 64.9063 25.5242 64.7852 24.3127C61.8373 41.0913 45.1799 46.8457 44.1704 47.1889V51.9943C44.1704 54.7807 46.9769 56.6584 49.5815 55.6287C50.3084 55.346 51.0353 55.0028 51.742 54.5989C59.5154 50.2579 64.9669 39.9808 64.9669 27.9673Z" fill="#547147"/>
<path opacity="0.33" d="M72.3973 30.5925C69.934 38.0631 63.4326 44.6251 61.0905 46.8057C58.93 50.1776 56.1841 52.863 53.0747 54.6196C63.2711 53.3677 71.3878 43.2723 72.3973 30.5925Z" fill="#404936"/>
<path opacity="0.33" d="M42.6365 36.8311C42.4346 39.4155 40.678 43.918 34.964 45.2708C29.2702 46.6236 23.96 39.6174 23.4351 38.9107C25.5955 45.9977 29.8154 51.6915 35.0851 54.6393C35.7918 55.023 36.4985 55.3662 37.2456 55.6691C39.83 56.6988 42.6567 54.8211 42.6567 52.0347V36.8311H42.6365Z" fill="#547147"/>
<path opacity="0.33" d="M22.0823 48.9253C25.232 52.0549 29.1087 54.0942 33.3487 54.6191C27.5742 51.3886 23.0716 44.867 21.1333 36.8311C22.163 42.2826 22.163 46.8053 22.0823 48.9253Z" fill="#404936"/>
<path opacity="0.39" d="M37.2251 0.306288C36.4982 0.588959 35.7714 0.932202 35.0647 1.33602C28.9469 4.76845 24.2828 11.8554 22.5464 20.5375C24.1011 16.4791 29.4314 6.12124 42.616 8.46337V3.94063C42.6362 1.1543 39.8095 -0.723443 37.2251 0.306288Z" fill="#547147"/>
<path opacity="0.39" d="M33.3687 1.31543C22.8291 2.60764 14.5105 13.3289 13.9653 26.6145C16.792 14.601 24.8482 8.74564 26.2615 7.79667C28.2806 5.05073 30.6833 2.82974 33.3687 1.31543Z" fill="#404936"/>
<path opacity="0.39" d="M50.3892 7.99866C55.5782 6.76702 58.8087 8.88706 60.8884 11.0475C58.5866 6.78722 55.4167 3.39516 51.742 1.31551C51.0353 0.931885 50.3286 0.588642 49.5815 0.28578C46.9971 -0.743951 44.1704 1.13379 44.1704 3.92012V17.5085C44.9175 13.4502 46.5933 8.90725 50.3892 7.99866Z" fill="#547147"/>
<g opacity="0.39">
<path d="M65.3311 19.2857L65.3513 19.3261C65.3513 19.3261 65.3311 19.2251 65.2705 19.0232C65.2907 19.1241 65.3109 19.2049 65.3311 19.2857Z" fill="#404936"/>
<path d="M63.1903 5.93944C60.2626 3.41559 56.81 1.78014 53.0747 1.33594C58.506 4.38475 62.7865 10.3007 64.9065 17.6905C64.1796 14.8234 62.8471 9.02863 63.1903 5.93944Z" fill="#404936"/>
</g>
<path d="M119.824 49.6118H119.96C120.728 49.6118 121.541 49.4762 122.445 49.16C123.619 48.7534 124.658 48.1661 125.562 47.3529C128.137 45.2747 129.402 42.2026 129.402 38.0915C129.402 35.3356 128.589 33.1671 126.963 31.5859C125.381 30.095 123.258 29.327 120.638 29.327C115.307 29.327 110.608 30.9986 106.542 34.3417C105.097 35.5163 103.832 36.8265 102.747 38.2722C101.889 39.3564 101.347 40.3052 101.076 41.028C101.076 41.0732 101.076 41.0732 101.031 41.0732C100.94 41.0732 100.805 40.9828 100.624 40.757C100.398 40.5311 100.127 40.26 99.9011 39.9437C99.2686 39.0854 98.9072 38.3625 98.9072 37.6848C98.9072 35.1097 101.256 32.3539 106 29.5077C110.789 26.6163 115.487 25.1707 120.05 25.1707C123.71 25.1707 126.691 26.2549 128.996 28.3783C131.435 30.6371 132.61 33.6189 132.61 37.3234C132.61 40.7569 131.571 43.8742 129.493 46.5849C127.234 49.5666 124.387 51.1026 120.954 51.1026C119.915 51.1026 118.921 50.9671 117.972 50.6508L116.798 50.0184C116.572 49.928 116.301 49.7925 116.075 49.6569C116.075 49.8376 116.075 50.0184 116.03 50.1539L115.939 50.5605C115.713 51.6899 115.262 52.458 114.539 52.9097C114.313 53.0904 114.042 53.1808 113.726 53.2711L113.364 53.3163H112.822L112.415 53.2711C112.009 53.1808 111.647 53.0453 111.376 52.8646C110.608 52.3676 110.337 51.5092 110.563 50.2894C110.699 49.5666 111.06 48.9341 111.693 48.3468C112.099 47.9854 112.506 47.7143 112.912 47.5788C112.957 46.1783 113.048 44.3712 113.274 42.1123L113.5 39.1305C113.59 38.0463 113.59 37.0072 113.59 36.0585C113.59 35.2904 113.545 34.6128 113.5 34.0255C113.364 33.1671 113.138 32.5346 112.867 32.0828H113.635L114.448 32.128C115.081 32.2184 115.623 32.3991 116.075 32.5798C117.295 33.1671 117.927 34.2514 117.927 35.9229C117.927 36.0133 117.837 36.6006 117.656 37.6397L117.52 38.4077L117.385 39.2209C117.249 39.9437 117.159 40.5762 117.069 41.1184C116.572 43.8742 116.301 45.9976 116.21 47.5336C116.662 48.392 117.882 49.0696 119.824 49.6118ZM113.229 52.3224C113.319 52.0062 113.409 51.1478 113.545 49.6569C112.777 49.7473 112.28 50.1087 112.144 50.8316C112.054 51.3285 112.144 51.6899 112.461 51.961C112.596 52.0514 112.732 52.1417 112.867 52.2321C112.957 52.3224 113.048 52.3224 113.138 52.3224H113.229Z" fill="#404936"/>
<path d="M136.63 50.1991C135.727 50.1991 135.004 49.9732 134.417 49.4763C133.784 48.9793 133.513 48.3017 133.513 47.4433C133.513 46.359 134.01 45.3651 135.049 44.4615C136.088 43.558 137.308 43.061 138.754 43.061C138.889 43.061 139.025 43.061 139.206 43.1062L139.341 43.1514H139.567C139.748 43.1514 139.838 43.0159 139.838 42.79C139.838 41.9316 139.251 41.4798 138.031 41.3443C137.534 41.2991 137.037 41.3443 136.495 41.3895C135.998 41.4798 135.591 41.525 135.275 41.6605C135.14 41.7509 135.004 41.7057 134.869 41.6153C134.733 41.4798 134.643 41.2991 134.643 41.1184C134.643 40.3504 134.823 39.7179 135.14 39.2661C135.637 38.6336 136.405 38.3625 137.489 38.3625H138.212C138.528 38.4077 138.799 38.4529 139.07 38.4529C139.793 38.5433 140.425 38.724 141.013 38.9499C142.504 39.6275 143.272 40.757 143.272 42.3834C143.226 42.79 143.181 43.3321 143.181 44.0098C143.181 44.9133 143.181 45.7265 143.226 46.4945C143.407 48.6631 143.814 49.8829 144.446 50.1991V50.425C144.446 50.5153 144.446 50.5605 144.401 50.5605C144.311 50.6961 144.04 50.7864 143.633 50.7864C143.407 50.7864 143.226 50.7413 143 50.6961C142.729 50.6057 142.458 50.4702 142.232 50.2895C141.555 49.7925 141.058 48.9341 140.787 47.8047C139.793 49.3859 138.392 50.1991 136.63 50.1991ZM138.347 47.9854C138.709 47.9854 139.07 47.8951 139.477 47.6692C139.928 47.4433 140.245 47.127 140.471 46.8108C140.38 46.6752 140.335 46.4494 140.335 46.1783V45.3651C140.29 44.6874 140.154 44.326 139.928 44.326C139.341 44.326 138.754 44.5971 138.212 45.1844C137.624 45.7717 137.353 46.3138 137.353 46.856C137.263 47.624 137.624 47.9854 138.347 47.9854Z" fill="#404936"/>
<path d="M153.436 39.8987C154.927 41.1636 155.695 42.7448 155.695 44.6875C155.695 45.9976 155.334 47.1723 154.566 48.2114C153.752 49.4312 152.668 50.0636 151.313 50.0636C149.777 50.0636 148.602 49.5215 147.789 48.4373C147.608 49.7022 147.473 51.0575 147.382 52.5936C147.292 53.1357 147.292 53.6327 147.292 54.1296C147.247 54.491 147.247 54.7621 147.247 54.8977C147.247 55.1235 147.247 55.3494 147.292 55.5301C147.382 55.8012 147.473 56.0271 147.653 56.2078C146.885 56.5692 146.163 56.4789 145.395 55.9819C144.627 55.4849 144.265 54.8525 144.31 54.0845L144.401 52.187L144.491 50.3347C144.672 48.0306 144.762 45.8169 144.762 43.6936V43.1966L144.672 42.5642C144.581 42.0672 144.446 41.7058 144.265 41.4799H144.627L144.898 41.4347H145.169C145.711 41.4347 146.163 41.4799 146.569 41.525C147.744 41.7961 148.376 42.519 148.376 43.7388C148.376 44.0098 148.376 44.2357 148.331 44.3713L148.286 44.6875L148.241 45.0941C148.196 45.4103 148.15 45.6814 148.15 45.9525C148.241 46.4946 148.512 46.9915 148.918 47.3981C149.415 47.8951 149.912 48.121 150.5 48.121C151.132 48.121 151.674 47.7596 152.126 47.0367C152.487 46.4042 152.623 45.7266 152.623 44.9586C152.623 43.8291 152.126 42.79 151.177 41.8413C150.183 40.8022 149.099 40.3956 147.834 40.6215L147.382 40.757L147.021 40.8926C146.75 40.9829 146.524 41.0281 146.343 41.0281C146.298 41.0281 146.253 41.0281 146.117 40.9829C145.982 40.9378 145.846 40.8926 145.756 40.8474C145.485 40.6667 145.349 40.4408 145.349 40.1697C145.349 39.6276 145.62 39.1758 146.117 38.7692C146.75 38.3626 147.563 38.1367 148.557 38.1367C150.409 38.1819 152.036 38.724 153.436 39.8987Z" fill="#404936"/>
<path d="M167.306 50.7415L166.628 50.7866C166.086 50.7866 165.634 50.7415 165.228 50.6511C164.189 50.4252 163.601 49.7476 163.556 48.6181C161.975 50.1993 160.439 50.9674 158.948 50.9674H158.496C158.27 50.9222 158.045 50.8318 157.864 50.6963C157.322 50.2897 157.096 49.4313 157.186 48.1212C157.322 46.9917 157.412 46.0882 157.457 45.4557C157.593 44.0552 157.683 43.1064 157.683 42.5191C157.683 41.6608 157.638 40.9379 157.548 40.2602C157.457 39.7633 157.367 39.3567 157.231 38.9501L157.096 38.5435L156.96 38.2273C156.87 38.0014 156.825 37.8658 156.825 37.7755C156.825 37.5496 156.96 37.4141 157.276 37.4141C158.045 37.4141 158.813 37.7755 159.535 38.4983C160.349 39.3115 160.755 40.3958 160.755 41.7059C160.755 44.01 160.755 45.546 160.8 46.3141C160.846 47.1724 160.936 47.579 161.162 47.579C161.478 47.579 161.975 47.1724 162.743 46.4044C163.059 46.1334 163.375 45.8171 163.647 45.5009C163.872 45.1846 164.098 44.9587 164.279 44.7328C164.505 43.7389 164.64 42.6999 164.776 41.6608C164.912 40.6669 165.002 39.9892 165.002 39.6729C165.002 39.4471 165.002 39.2212 164.957 38.9953C164.866 38.7242 164.776 38.4983 164.595 38.3176C165.363 37.911 166.086 37.911 166.854 38.3176C167.622 38.7694 167.984 39.4922 167.938 40.4861C167.938 40.712 167.893 41.0283 167.848 41.4801L167.803 42.1577L167.758 42.8354C167.667 44.01 167.577 45.0491 167.532 45.9075C167.396 48.5278 167.532 50.1542 167.984 50.7866H167.306V50.7415Z" fill="#404936"/>
<path d="M193.644 49.6118H193.78C194.548 49.6118 195.361 49.4762 196.265 49.16C197.439 48.7534 198.478 48.1661 199.382 47.3529C201.957 45.2747 203.222 42.2026 203.222 38.0915C203.222 35.3356 202.409 33.1671 200.782 31.5859C199.201 30.095 197.078 29.327 194.458 29.327C189.127 29.327 184.428 30.9986 180.362 34.3417C178.916 35.5163 177.651 36.8265 176.567 38.2722C175.709 39.3564 175.167 40.3052 174.896 41.028C174.896 41.0732 174.896 41.0732 174.85 41.0732C174.76 41.0732 174.625 40.9828 174.444 40.757C174.218 40.5311 173.947 40.26 173.721 39.9437C173.088 39.0854 172.727 38.3625 172.727 37.6848C172.727 35.1097 175.076 32.3539 179.82 29.5077C184.609 26.6163 189.307 25.1707 193.87 25.1707C197.53 25.1707 200.511 26.2549 202.815 28.3783C205.255 30.6371 206.43 33.6189 206.43 37.3234C206.43 40.7569 205.39 43.8742 203.312 46.5849C201.053 49.5666 198.207 51.1026 194.774 51.1026C193.735 51.1026 192.741 50.9671 191.792 50.6508L190.617 50.0184C190.392 49.928 190.12 49.7925 189.895 49.6569C189.895 49.8376 189.895 50.0184 189.849 50.1539L189.759 50.5605C189.533 51.6899 189.081 52.458 188.359 52.9097C188.133 53.0904 187.862 53.1808 187.545 53.2711L187.184 53.3163H186.551L186.145 53.2711C185.738 53.1808 185.377 53.0453 185.106 52.8646C184.338 52.3676 184.067 51.5092 184.293 50.2894C184.428 49.5666 184.789 48.9341 185.422 48.3468C185.829 47.9854 186.235 47.7143 186.642 47.5788C186.687 46.1783 186.777 44.3712 187.003 42.1123L187.229 39.1305C187.319 38.0463 187.319 37.0072 187.319 36.0585C187.319 35.2904 187.274 34.6128 187.229 34.0255C187.094 33.1671 186.868 32.5346 186.597 32.0828H187.365L188.178 32.128C188.81 32.2184 189.352 32.3991 189.804 32.5798C191.024 33.1671 191.656 34.2514 191.656 35.9229C191.656 36.0133 191.566 36.6006 191.385 37.6397L191.25 38.4077L191.114 39.2209C190.979 39.9437 190.888 40.5762 190.798 41.1184C190.301 43.8742 190.03 45.9976 189.94 47.5336C190.482 48.392 191.702 49.0696 193.644 49.6118ZM187.048 52.3224C187.139 52.0062 187.229 51.1478 187.365 49.6569C186.597 49.7473 186.1 50.1087 185.964 50.8316C185.874 51.3285 185.964 51.6899 186.28 51.961C186.416 52.0514 186.551 52.1417 186.687 52.2321C186.777 52.3224 186.868 52.3224 186.958 52.3224H187.048Z" fill="#404936"/>
<path d="M214.155 50.7411C214.2 50.1989 214.246 49.702 214.291 49.2954C213.252 50.1989 212.122 50.6055 211.038 50.6055C209.005 50.6055 207.921 49.1599 207.695 46.3137C207.605 45.4101 207.605 44.2355 207.695 42.6995L207.785 41.8411L207.83 41.0279C207.876 40.3954 207.876 39.9436 207.876 39.5822C207.876 39.1304 207.876 38.8142 207.83 38.5883C207.74 37.9558 207.65 37.504 207.514 37.1426H207.966L208.598 37.0974C209.141 37.0974 209.592 37.1426 209.999 37.2329C211.083 37.504 211.625 38.1817 211.625 39.2659C211.535 39.7629 211.399 40.2598 211.309 40.8472L211.174 41.6152L211.083 42.3832C210.722 44.1451 210.541 45.7715 210.541 47.3076C210.541 48.1208 210.812 48.5274 211.309 48.5274C212.348 48.5274 213.161 47.9852 213.749 46.9461C214.246 46.0426 214.472 44.9132 214.472 43.6934V43.1964L214.381 42.5639C214.291 42.067 214.155 41.6604 213.975 41.4345H214.472L215.104 41.3893C215.646 41.3893 216.098 41.4345 216.414 41.5248C217.453 41.7959 217.995 42.5187 217.995 43.6934C218.086 43.9193 217.995 44.6421 217.86 45.9523L217.769 46.8558L217.634 47.5786L217.589 48.0756L217.498 49.1147C217.95 48.8888 218.357 48.6629 218.763 48.3918C219.08 48.2111 219.396 48.0304 219.757 47.7594L220.571 47.2624C220.661 47.3527 220.706 47.4883 220.706 47.669C220.706 48.166 219.577 49.2502 217.273 50.8314L217.137 52.0512L217.001 53.271C216.911 54.1746 216.821 55.0781 216.73 55.8913C216.685 56.4787 216.55 57.066 216.324 57.6081C215.827 58.7375 215.059 59.2797 214.02 59.2797C213.116 59.2797 212.348 58.8279 211.625 57.9695C210.993 57.1111 210.631 56.2527 210.631 55.304C210.631 54.1294 211.128 53.0451 212.122 52.1416C212.484 51.7802 212.845 51.5091 213.297 51.238C213.478 51.1477 213.658 51.0122 213.839 50.9218L214.11 50.7862L214.155 50.7411ZM213.929 54.7167L214.02 53.9487L214.11 53.0903C213.342 53.7228 212.935 54.3553 212.935 55.033C212.935 55.5299 213.207 55.9365 213.703 56.2979C213.794 55.8913 213.884 55.3944 213.929 54.7167Z" fill="#404936"/>
<path d="M219.712 46.5396C219.938 44.8228 220.028 43.4223 220.028 42.2929C220.028 41.6152 219.983 40.9827 219.893 40.4406C219.802 40.034 219.667 39.6726 219.531 39.3112L219.305 38.9498L219.17 38.6335C219.079 38.4076 219.034 38.2721 219.034 38.2269C219.034 38.001 219.215 37.8655 219.576 37.8655C220.344 37.8655 221.067 38.1817 221.835 38.8594C222.694 39.6726 223.1 40.7117 223.1 41.9766L222.784 47.3076C222.784 47.4432 222.784 47.5787 222.829 47.669C222.919 47.9401 223.01 48.0756 223.191 48.0756C223.552 48.0756 224.184 47.5787 225.088 46.63C225.901 45.7264 226.398 45.0939 226.534 44.6421C226.624 43.8289 226.669 43.0157 226.669 42.2025C226.669 41.0279 226.488 40.0792 226.172 39.266L225.946 38.9046L225.811 38.5883C225.72 38.4076 225.675 38.3172 225.675 38.2269C225.675 38.001 225.856 37.8655 226.217 37.8655C226.985 37.8655 227.708 38.1817 228.476 38.8594C229.335 39.6726 229.741 40.7117 229.741 41.9766L229.425 47.3076V47.4432L229.47 47.7142C229.561 47.9401 229.741 48.0756 229.967 48.0756H230.103L230.329 47.9853C230.554 47.8949 230.735 47.8046 231.006 47.6238C231.639 47.1269 232.271 46.2685 232.904 45.0487C233.265 44.0097 233.446 42.9706 233.581 41.8863C233.581 41.5249 233.581 41.2086 233.581 40.802V40.1244C233.581 39.8985 233.581 39.6726 233.536 39.4467C233.446 39.1756 233.355 38.9497 233.175 38.769L233.265 38.7239L233.491 38.6787C233.581 38.6335 233.898 38.6335 234.395 38.6335C234.892 38.6335 235.343 38.8594 235.795 39.266C236.292 39.7629 236.518 40.3051 236.518 40.9376C236.563 41.3893 236.518 42.1574 236.428 43.2416L236.382 43.9645L236.337 44.7325L236.202 46.3137C236.021 48.934 236.157 50.5604 236.608 51.1929H235.434C234.53 51.1929 233.852 51.0574 233.401 50.8315C232.768 50.5152 232.362 49.9731 232.271 49.1599C230.69 50.7411 229.244 51.5091 227.889 51.5091H227.753L227.528 51.4639C227.302 51.4188 227.076 51.3284 226.895 51.1477C226.398 50.6959 226.127 49.8376 226.127 48.5726C225.359 49.431 224.636 50.0635 223.959 50.5152C223.01 51.1477 222.061 51.5091 221.203 51.5091C220.028 51.5995 219.441 50.6508 219.486 48.7533C219.531 47.8046 219.667 47.0366 219.712 46.5396Z" fill="#404936"/>
<path d="M244.469 38.227C245.463 38.227 246.276 38.7691 246.909 39.8534C247.496 40.8021 247.767 41.8412 247.767 42.9706C247.767 46.0879 246.999 48.2112 245.418 49.3858C244.921 49.7473 244.289 50.0183 243.611 50.1539C243.385 50.199 243.114 50.2442 242.888 50.2442H242.436C241.081 50.2442 239.951 49.6569 239.048 48.5275C238.235 47.4884 237.828 46.1782 237.828 44.6874C237.828 42.9706 238.325 41.3894 239.319 39.9889C239.68 39.4016 240.177 38.8594 240.81 38.3173C241.081 38.0462 241.442 38.0462 241.939 38.3173C242.391 38.5432 242.707 38.8595 242.843 39.3112C243.249 38.5432 243.746 38.227 244.469 38.227ZM245.96 43.1513C245.96 43.5128 245.825 43.7838 245.599 43.9645C245.418 44.1001 245.237 44.1904 244.966 44.1904C244.063 44.1904 243.385 43.7838 242.933 42.9706C242.752 42.6544 242.662 42.3381 242.572 41.9767C242.481 41.6604 242.481 41.3894 242.481 41.1635C241.533 42.1122 241.036 43.332 241.036 44.7777V45.0488C241.036 45.2295 241.036 45.365 241.081 45.5006C241.126 45.9072 241.216 46.2686 241.352 46.63C241.713 47.6239 242.391 48.0757 243.385 47.9402H243.43L243.521 47.895C243.656 47.895 243.792 47.8498 243.882 47.8046C244.243 47.6691 244.56 47.4432 244.876 47.127C245.779 46.1782 246.276 44.6874 246.276 42.6092C246.276 41.8863 246.231 41.3442 246.141 40.9376C245.96 40.4407 245.734 40.1244 245.373 40.0793C245.102 40.0793 244.921 40.2148 244.831 40.4407C244.74 40.6666 244.695 40.8925 244.74 41.2087C244.831 41.9767 245.057 42.3381 245.508 42.3381C245.779 42.4737 245.96 42.7447 245.96 43.1513Z" fill="#404936"/>
<path d="M259.604 50.7415L258.927 50.7867C258.384 50.7867 257.933 50.7415 257.526 50.6512C256.487 50.4253 255.9 49.7476 255.855 48.6182C254.273 50.1994 252.737 50.9674 251.246 50.9674H250.795C250.569 50.9222 250.343 50.8319 250.162 50.6964C249.62 50.2898 249.394 49.4314 249.484 48.1212C249.62 46.9918 249.71 46.0882 249.756 45.4557C249.891 44.0552 249.981 43.1065 249.981 42.5192C249.981 41.6608 249.936 40.938 249.846 40.2603C249.756 39.7634 249.665 39.3568 249.53 38.9502L249.394 38.5436L249.259 38.2273C249.168 38.0014 249.123 37.8659 249.123 37.7755C249.123 37.5497 249.259 37.4141 249.575 37.4141C250.343 37.4141 251.111 37.7756 251.834 38.4984C252.647 39.3116 253.054 40.3958 253.054 41.706C253.054 44.0101 253.053 45.5461 253.099 46.3141C253.144 47.1725 253.234 47.5791 253.46 47.5791C253.776 47.5791 254.273 47.1725 255.041 46.4045C255.358 46.1334 255.674 45.8172 255.945 45.5009C256.171 45.1847 256.397 44.9588 256.577 44.7329C256.803 43.739 256.939 42.6999 257.074 41.6608C257.21 40.6669 257.3 39.9893 257.3 39.673C257.3 39.4471 257.3 39.2212 257.255 38.9953C257.165 38.7243 257.074 38.4984 256.894 38.3177C257.662 37.9111 258.384 37.9111 259.152 38.3177C259.921 38.7695 260.282 39.4923 260.237 40.4862C260.237 40.7121 260.192 41.0283 260.146 41.4801L260.101 42.1578L260.056 42.8354C259.966 44.0101 259.875 45.0491 259.83 45.9075C259.695 48.5278 259.83 50.1542 260.282 50.7867H259.604V50.7415ZM257.3 35.9684C256.758 36.4202 256.171 36.6461 255.493 36.6461C254.861 36.6461 254.228 36.4202 253.55 36.0136L253.189 35.7877L252.828 35.5619C252.557 35.4263 252.331 35.336 252.105 35.336C251.879 35.336 251.653 35.4263 251.427 35.6522C251.337 35.7425 251.292 35.7877 251.292 35.8781L251.246 35.9233V35.9684C250.885 35.9684 250.749 35.8329 250.749 35.5167C250.749 34.6583 251.337 34.2065 252.466 34.2065C252.828 34.1613 253.279 34.2065 253.867 34.2517L254.499 34.2969C254.725 34.342 254.906 34.342 254.996 34.342C255.132 34.342 255.267 34.342 255.403 34.2969C255.583 34.2065 255.764 34.1162 255.9 33.9806C256.306 33.6644 256.577 33.1674 256.668 32.4446L256.713 32.4897C256.803 32.4897 256.848 32.5349 256.939 32.5801C257.119 32.7156 257.255 32.8512 257.391 32.9867C257.616 33.2126 257.797 33.4385 257.887 33.6644C258.023 33.8903 258.113 34.1613 258.113 34.3872C258.113 35.0197 257.842 35.5167 257.3 35.9684Z" fill="#404936"/>
</g>
<defs>
<clipPath id="clip0_1_381">
<rect width="261" height="84" fill="white"/>
</clipPath>
</defs>
</svg>
